<?xml version="1.0" encoding="utf-8" standalone="no"?>
<!DOCTYPE svg PUBLIC "-//W3C//DTD SVG 1.1//EN"
  "http://www.w3.org/Graphics/SVG/1.1/DTD/svg11.dtd">
<svg xmlns:xlink="http://www.w3.org/1999/xlink" width="530.86125pt" height="341.737441pt" viewBox="0 0 530.86125 341.737441" xmlns="http://www.w3.org/2000/svg" version="1.1">
 <metadata>
  <rdf:RDF xmlns:dc="http://purl.org/dc/elements/1.1/" xmlns:cc="http://creativecommons.org/ns#" xmlns:rdf="http://www.w3.org/1999/02/22-rdf-syntax-ns#">
   <cc:Work>
    <dc:type rdf:resource="http://purl.org/dc/dcmitype/StillImage"/>
    <dc:date>2026-07-08T14:41:55.383476</dc:date>
    <dc:format>image/svg+xml</dc:format>
    <dc:creator>
     <cc:Agent>
      <dc:title>Matplotlib v3.9.2, https://matplotlib.org/</dc:title>
     </cc:Agent>
    </dc:creator>
   </cc:Work>
  </rdf:RDF>
 </metadata>
 <defs>
  <style type="text/css">*{stroke-linejoin: round; stroke-linecap: butt}</style>
 </defs>
 <g id="figure_1">
  <g id="patch_1">
   <path d="M 0 341.737441 
L 530.86125 341.737441 
L 530.86125 0 
L 0 0 
z
" style="fill: #ffffff"/>
  </g>
  <g id="axes_1">
   <g id="patch_2">
    <path d="M 43.78125 301.8675 
L 523.66125 301.8675 
L 523.66125 35.7555 
L 43.78125 35.7555 
z
" style="fill: #ffffff"/>
   </g>
   <g id="patch_3">
    <path d="M 65.593977 301.8675 
L 100.421021 301.8675 
L 100.421021 55.63998 
L 65.593977 55.63998 
z
" clip-path="url(#p0971578055)" style="fill: #1f77b4"/>
   </g>
   <g id="patch_4">
    <path d="M 157.244092 301.8675 
L 192.071135 301.8675 
L 192.071135 82.62078 
L 157.244092 82.62078 
z
" clip-path="url(#p0971578055)" style="fill: #1f77b4"/>
   </g>
   <g id="patch_5">
    <path d="M 248.894206 301.8675 
L 283.72125 301.8675 
L 283.72125 55.56606 
L 248.894206 55.56606 
z
" clip-path="url(#p0971578055)" style="fill: #1f77b4"/>
   </g>
   <g id="patch_6">
    <path d="M 340.544321 301.8675 
L 375.371365 301.8675 
L 375.371365 55.86174 
L 340.544321 55.86174 
z
" clip-path="url(#p0971578055)" style="fill: #1f77b4"/>
   </g>
   <g id="patch_7">
    <path d="M 432.194436 301.8675 
L 467.021479 301.8675 
L 467.021479 57.63582 
L 432.194436 57.63582 
z
" clip-path="url(#p0971578055)" style="fill: #1f77b4"/>
   </g>
   <g id="patch_8">
    <path d="M 100.421021 301.8675 
L 135.248064 301.8675 
L 135.248064 124.26238 
L 100.421021 124.26238 
z
" clip-path="url(#p0971578055)" style="fill: #ff7f0e"/>
   </g>
   <g id="patch_9">
    <path d="M 192.071135 301.8675 
L 226.898179 301.8675 
L 226.898179 132.86174 
L 192.071135 132.86174 
z
" clip-path="url(#p0971578055)" style="fill: #ff7f0e"/>
   </g>
   <g id="patch_10">
    <path d="M 283.72125 301.8675 
L 318.548294 301.8675 
L 318.548294 258.0083 
L 283.72125 258.0083 
z
" clip-path="url(#p0971578055)" style="fill: #ff7f0e"/>
   </g>
   <g id="patch_11">
    <path d="M 375.371365 301.8675 
L 410.198408 301.8675 
L 410.198408 58.20254 
L 375.371365 58.20254 
z
" clip-path="url(#p0971578055)" style="fill: #ff7f0e"/>
   </g>
   <g id="patch_12">
    <path d="M 467.021479 301.8675 
L 501.848523 301.8675 
L 501.848523 250.32062 
L 467.021479 250.32062 
z
" clip-path="url(#p0971578055)" style="fill: #ff7f0e"/>
   </g>
   <g id="matplotlib.axis_1">
    <g id="xtick_1">
     <g id="line2d_1">
      <defs>
       <path id="md145914437" d="M 0 0 
L 0 3.5 
" style="stroke: #000000; stroke-width: 0.8"/>
      </defs>
      <g>
       <use xlink:href="#md145914437" x="100.421021" y="301.8675" style="stroke: #000000; stroke-width: 0.8"/>
      </g>
     </g>
     <g id="text_1">
      <!-- aniso (outlier dims) -->
      <g transform="translate(62.926025 330.948142) rotate(-12) scale(0.08 -0.08)">
       <defs>
        <path id="DejaVuSans-61" d="M 2194 1759 
Q 1497 1759 1228 1600 
Q 959 1441 959 1056 
Q 959 750 1161 570 
Q 1363 391 1709 391 
Q 2188 391 2477 730 
Q 2766 1069 2766 1631 
L 2766 1759 
L 2194 1759 
z
M 3341 1997 
L 3341 0 
L 2766 0 
L 2766 531 
Q 2569 213 2275 61 
Q 1981 -91 1556 -91 
Q 1019 -91 701 211 
Q 384 513 384 1019 
Q 384 1609 779 1909 
Q 1175 2209 1959 2209 
L 2766 2209 
L 2766 2266 
Q 2766 2663 2505 2880 
Q 2244 3097 1772 3097 
Q 1472 3097 1187 3025 
Q 903 2953 641 2809 
L 641 3341 
Q 956 3463 1253 3523 
Q 1550 3584 1831 3584 
Q 2591 3584 2966 3190 
Q 3341 2797 3341 1997 
z
" transform="scale(0.015625)"/>
        <path id="DejaVuSans-6e" d="M 3513 2113 
L 3513 0 
L 2938 0 
L 2938 2094 
Q 2938 2591 2744 2837 
Q 2550 3084 2163 3084 
Q 1697 3084 1428 2787 
Q 1159 2491 1159 1978 
L 1159 0 
L 581 0 
L 581 3500 
L 1159 3500 
L 1159 2956 
Q 1366 3272 1645 3428 
Q 1925 3584 2291 3584 
Q 2894 3584 3203 3211 
Q 3513 2838 3513 2113 
z
" transform="scale(0.015625)"/>
        <path id="DejaVuSans-69" d="M 603 3500 
L 1178 3500 
L 1178 0 
L 603 0 
L 603 3500 
z
M 603 4863 
L 1178 4863 
L 1178 4134 
L 603 4134 
L 603 4863 
z
" transform="scale(0.015625)"/>
        <path id="DejaVuSans-73" d="M 2834 3397 
L 2834 2853 
Q 2591 2978 2328 3040 
Q 2066 3103 1784 3103 
Q 1356 3103 1142 2972 
Q 928 2841 928 2578 
Q 928 2378 1081 2264 
Q 1234 2150 1697 2047 
L 1894 2003 
Q 2506 1872 2764 1633 
Q 3022 1394 3022 966 
Q 3022 478 2636 193 
Q 2250 -91 1575 -91 
Q 1294 -91 989 -36 
Q 684 19 347 128 
L 347 722 
Q 666 556 975 473 
Q 1284 391 1588 391 
Q 1994 391 2212 530 
Q 2431 669 2431 922 
Q 2431 1156 2273 1281 
Q 2116 1406 1581 1522 
L 1381 1569 
Q 847 1681 609 1914 
Q 372 2147 372 2553 
Q 372 3047 722 3315 
Q 1072 3584 1716 3584 
Q 2034 3584 2315 3537 
Q 2597 3491 2834 3397 
z
" transform="scale(0.015625)"/>
        <path id="DejaVuSans-6f" d="M 1959 3097 
Q 1497 3097 1228 2736 
Q 959 2375 959 1747 
Q 959 1119 1226 758 
Q 1494 397 1959 397 
Q 2419 397 2687 759 
Q 2956 1122 2956 1747 
Q 2956 2369 2687 2733 
Q 2419 3097 1959 3097 
z
M 1959 3584 
Q 2709 3584 3137 3096 
Q 3566 2609 3566 1747 
Q 3566 888 3137 398 
Q 2709 -91 1959 -91 
Q 1206 -91 779 398 
Q 353 888 353 1747 
Q 353 2609 779 3096 
Q 1206 3584 1959 3584 
z
" transform="scale(0.015625)"/>
        <path id="DejaVuSans-20" transform="scale(0.015625)"/>
        <path id="DejaVuSans-28" d="M 1984 4856 
Q 1566 4138 1362 3434 
Q 1159 2731 1159 2009 
Q 1159 1288 1364 580 
Q 1569 -128 1984 -844 
L 1484 -844 
Q 1016 -109 783 600 
Q 550 1309 550 2009 
Q 550 2706 781 3412 
Q 1013 4119 1484 4856 
L 1984 4856 
z
" transform="scale(0.015625)"/>
        <path id="DejaVuSans-75" d="M 544 1381 
L 544 3500 
L 1119 3500 
L 1119 1403 
Q 1119 906 1312 657 
Q 1506 409 1894 409 
Q 2359 409 2629 706 
Q 2900 1003 2900 1516 
L 2900 3500 
L 3475 3500 
L 3475 0 
L 2900 0 
L 2900 538 
Q 2691 219 2414 64 
Q 2138 -91 1772 -91 
Q 1169 -91 856 284 
Q 544 659 544 1381 
z
M 1991 3584 
L 1991 3584 
z
" transform="scale(0.015625)"/>
        <path id="DejaVuSans-74" d="M 1172 4494 
L 1172 3500 
L 2356 3500 
L 2356 3053 
L 1172 3053 
L 1172 1153 
Q 1172 725 1289 603 
Q 1406 481 1766 481 
L 2356 481 
L 2356 0 
L 1766 0 
Q 1100 0 847 248 
Q 594 497 594 1153 
L 594 3053 
L 172 3053 
L 172 3500 
L 594 3500 
L 594 4494 
L 1172 4494 
z
" transform="scale(0.015625)"/>
        <path id="DejaVuSans-6c" d="M 603 4863 
L 1178 4863 
L 1178 0 
L 603 0 
L 603 4863 
z
" transform="scale(0.015625)"/>
        <path id="DejaVuSans-65" d="M 3597 1894 
L 3597 1613 
L 953 1613 
Q 991 1019 1311 708 
Q 1631 397 2203 397 
Q 2534 397 2845 478 
Q 3156 559 3463 722 
L 3463 178 
Q 3153 47 2828 -22 
Q 2503 -91 2169 -91 
Q 1331 -91 842 396 
Q 353 884 353 1716 
Q 353 2575 817 3079 
Q 1281 3584 2069 3584 
Q 2775 3584 3186 3129 
Q 3597 2675 3597 1894 
z
M 3022 2063 
Q 3016 2534 2758 2815 
Q 2500 3097 2075 3097 
Q 1594 3097 1305 2825 
Q 1016 2553 972 2059 
L 3022 2063 
z
" transform="scale(0.015625)"/>
        <path id="DejaVuSans-72" d="M 2631 2963 
Q 2534 3019 2420 3045 
Q 2306 3072 2169 3072 
Q 1681 3072 1420 2755 
Q 1159 2438 1159 1844 
L 1159 0 
L 581 0 
L 581 3500 
L 1159 3500 
L 1159 2956 
Q 1341 3275 1631 3429 
Q 1922 3584 2338 3584 
Q 2397 3584 2469 3576 
Q 2541 3569 2628 3553 
L 2631 2963 
z
" transform="scale(0.015625)"/>
        <path id="DejaVuSans-64" d="M 2906 2969 
L 2906 4863 
L 3481 4863 
L 3481 0 
L 2906 0 
L 2906 525 
Q 2725 213 2448 61 
Q 2172 -91 1784 -91 
Q 1150 -91 751 415 
Q 353 922 353 1747 
Q 353 2572 751 3078 
Q 1150 3584 1784 3584 
Q 2172 3584 2448 3432 
Q 2725 3281 2906 2969 
z
M 947 1747 
Q 947 1113 1208 752 
Q 1469 391 1925 391 
Q 2381 391 2643 752 
Q 2906 1113 2906 1747 
Q 2906 2381 2643 2742 
Q 2381 3103 1925 3103 
Q 1469 3103 1208 2742 
Q 947 2381 947 1747 
z
" transform="scale(0.015625)"/>
        <path id="DejaVuSans-6d" d="M 3328 2828 
Q 3544 3216 3844 3400 
Q 4144 3584 4550 3584 
Q 5097 3584 5394 3201 
Q 5691 2819 5691 2113 
L 5691 0 
L 5113 0 
L 5113 2094 
Q 5113 2597 4934 2840 
Q 4756 3084 4391 3084 
Q 3944 3084 3684 2787 
Q 3425 2491 3425 1978 
L 3425 0 
L 2847 0 
L 2847 2094 
Q 2847 2600 2669 2842 
Q 2491 3084 2119 3084 
Q 1678 3084 1418 2786 
Q 1159 2488 1159 1978 
L 1159 0 
L 581 0 
L 581 3500 
L 1159 3500 
L 1159 2956 
Q 1356 3278 1631 3431 
Q 1906 3584 2284 3584 
Q 2666 3584 2933 3390 
Q 3200 3197 3328 2828 
z
" transform="scale(0.015625)"/>
        <path id="DejaVuSans-29" d="M 513 4856 
L 1013 4856 
Q 1481 4119 1714 3412 
Q 1947 2706 1947 2009 
Q 1947 1309 1714 600 
Q 1481 -109 1013 -844 
L 513 -844 
Q 928 -128 1133 580 
Q 1338 1288 1338 2009 
Q 1338 2731 1133 3434 
Q 928 4138 513 4856 
z
" transform="scale(0.015625)"/>
       </defs>
       <use xlink:href="#DejaVuSans-61"/>
       <use xlink:href="#DejaVuSans-6e" x="61.279297"/>
       <use xlink:href="#DejaVuSans-69" x="124.658203"/>
       <use xlink:href="#DejaVuSans-73" x="152.441406"/>
       <use xlink:href="#DejaVuSans-6f" x="204.541016"/>
       <use xlink:href="#DejaVuSans-20" x="265.722656"/>
       <use xlink:href="#DejaVuSans-28" x="297.509766"/>
       <use xlink:href="#DejaVuSans-6f" x="336.523438"/>
       <use xlink:href="#DejaVuSans-75" x="397.705078"/>
       <use xlink:href="#DejaVuSans-74" x="461.083984"/>
       <use xlink:href="#DejaVuSans-6c" x="500.292969"/>
       <use xlink:href="#DejaVuSans-69" x="528.076172"/>
       <use xlink:href="#DejaVuSans-65" x="555.859375"/>
       <use xlink:href="#DejaVuSans-72" x="617.382812"/>
       <use xlink:href="#DejaVuSans-20" x="658.496094"/>
       <use xlink:href="#DejaVuSans-64" x="690.283203"/>
       <use xlink:href="#DejaVuSans-69" x="753.759766"/>
       <use xlink:href="#DejaVuSans-6d" x="781.542969"/>
       <use xlink:href="#DejaVuSans-73" x="878.955078"/>
       <use xlink:href="#DejaVuSans-29" x="931.054688"/>
      </g>
     </g>
    </g>
    <g id="xtick_2">
     <g id="line2d_2">
      <g>
       <use xlink:href="#md145914437" x="192.071135" y="301.8675" style="stroke: #000000; stroke-width: 0.8"/>
      </g>
     </g>
     <g id="text_2">
      <!-- iso (Gaussian control) -->
      <g transform="translate(149.961117 332.910048) rotate(-12) scale(0.08 -0.08)">
       <defs>
        <path id="DejaVuSans-47" d="M 3809 666 
L 3809 1919 
L 2778 1919 
L 2778 2438 
L 4434 2438 
L 4434 434 
Q 4069 175 3628 42 
Q 3188 -91 2688 -91 
Q 1594 -91 976 548 
Q 359 1188 359 2328 
Q 359 3472 976 4111 
Q 1594 4750 2688 4750 
Q 3144 4750 3555 4637 
Q 3966 4525 4313 4306 
L 4313 3634 
Q 3963 3931 3569 4081 
Q 3175 4231 2741 4231 
Q 1884 4231 1454 3753 
Q 1025 3275 1025 2328 
Q 1025 1384 1454 906 
Q 1884 428 2741 428 
Q 3075 428 3337 486 
Q 3600 544 3809 666 
z
" transform="scale(0.015625)"/>
        <path id="DejaVuSans-63" d="M 3122 3366 
L 3122 2828 
Q 2878 2963 2633 3030 
Q 2388 3097 2138 3097 
Q 1578 3097 1268 2742 
Q 959 2388 959 1747 
Q 959 1106 1268 751 
Q 1578 397 2138 397 
Q 2388 397 2633 464 
Q 2878 531 3122 666 
L 3122 134 
Q 2881 22 2623 -34 
Q 2366 -91 2075 -91 
Q 1284 -91 818 406 
Q 353 903 353 1747 
Q 353 2603 823 3093 
Q 1294 3584 2113 3584 
Q 2378 3584 2631 3529 
Q 2884 3475 3122 3366 
z
" transform="scale(0.015625)"/>
       </defs>
       <use xlink:href="#DejaVuSans-69"/>
       <use xlink:href="#DejaVuSans-73" x="27.783203"/>
       <use xlink:href="#DejaVuSans-6f" x="79.882812"/>
       <use xlink:href="#DejaVuSans-20" x="141.064453"/>
       <use xlink:href="#DejaVuSans-28" x="172.851562"/>
       <use xlink:href="#DejaVuSans-47" x="211.865234"/>
       <use xlink:href="#DejaVuSans-61" x="289.355469"/>
       <use xlink:href="#DejaVuSans-75" x="350.634766"/>
       <use xlink:href="#DejaVuSans-73" x="414.013672"/>
       <use xlink:href="#DejaVuSans-73" x="466.113281"/>
       <use xlink:href="#DejaVuSans-69" x="518.212891"/>
       <use xlink:href="#DejaVuSans-61" x="545.996094"/>
       <use xlink:href="#DejaVuSans-6e" x="607.275391"/>
       <use xlink:href="#DejaVuSans-20" x="670.654297"/>
       <use xlink:href="#DejaVuSans-63" x="702.441406"/>
       <use xlink:href="#DejaVuSans-6f" x="757.421875"/>
       <use xlink:href="#DejaVuSans-6e" x="818.603516"/>
       <use xlink:href="#DejaVuSans-74" x="881.982422"/>
       <use xlink:href="#DejaVuSans-72" x="921.191406"/>
       <use xlink:href="#DejaVuSans-6f" x="960.054688"/>
       <use xlink:href="#DejaVuSans-6c" x="1021.236328"/>
       <use xlink:href="#DejaVuSans-29" x="1049.019531"/>
      </g>
     </g>
    </g>
    <g id="xtick_3">
     <g id="line2d_3">
      <g>
       <use xlink:href="#md145914437" x="283.72125" y="301.8675" style="stroke: #000000; stroke-width: 0.8"/>
      </g>
     </g>
     <g id="text_3">
      <!-- blobs (clustered) -->
      <g transform="translate(251.287557 328.796515) rotate(-12) scale(0.08 -0.08)">
       <defs>
        <path id="DejaVuSans-62" d="M 3116 1747 
Q 3116 2381 2855 2742 
Q 2594 3103 2138 3103 
Q 1681 3103 1420 2742 
Q 1159 2381 1159 1747 
Q 1159 1113 1420 752 
Q 1681 391 2138 391 
Q 2594 391 2855 752 
Q 3116 1113 3116 1747 
z
M 1159 2969 
Q 1341 3281 1617 3432 
Q 1894 3584 2278 3584 
Q 2916 3584 3314 3078 
Q 3713 2572 3713 1747 
Q 3713 922 3314 415 
Q 2916 -91 2278 -91 
Q 1894 -91 1617 61 
Q 1341 213 1159 525 
L 1159 0 
L 581 0 
L 581 4863 
L 1159 4863 
L 1159 2969 
z
" transform="scale(0.015625)"/>
       </defs>
       <use xlink:href="#DejaVuSans-62"/>
       <use xlink:href="#DejaVuSans-6c" x="63.476562"/>
       <use xlink:href="#DejaVuSans-6f" x="91.259766"/>
       <use xlink:href="#DejaVuSans-62" x="152.441406"/>
       <use xlink:href="#DejaVuSans-73" x="215.917969"/>
       <use xlink:href="#DejaVuSans-20" x="268.017578"/>
       <use xlink:href="#DejaVuSans-28" x="299.804688"/>
       <use xlink:href="#DejaVuSans-63" x="338.818359"/>
       <use xlink:href="#DejaVuSans-6c" x="393.798828"/>
       <use xlink:href="#DejaVuSans-75" x="421.582031"/>
       <use xlink:href="#DejaVuSans-73" x="484.960938"/>
       <use xlink:href="#DejaVuSans-74" x="537.060547"/>
       <use xlink:href="#DejaVuSans-65" x="576.269531"/>
       <use xlink:href="#DejaVuSans-72" x="637.792969"/>
       <use xlink:href="#DejaVuSans-65" x="676.65625"/>
       <use xlink:href="#DejaVuSans-64" x="738.179688"/>
       <use xlink:href="#DejaVuSans-29" x="801.65625"/>
      </g>
     </g>
    </g>
    <g id="xtick_4">
     <g id="line2d_4">
      <g>
       <use xlink:href="#md145914437" x="375.371365" y="301.8675" style="stroke: #000000; stroke-width: 0.8"/>
      </g>
     </g>
     <g id="text_4">
      <!-- unit (cosine) -->
      <g transform="translate(351.396203 325.200683) rotate(-12) scale(0.08 -0.08)">
       <use xlink:href="#DejaVuSans-75"/>
       <use xlink:href="#DejaVuSans-6e" x="63.378906"/>
       <use xlink:href="#DejaVuSans-69" x="126.757812"/>
       <use xlink:href="#DejaVuSans-74" x="154.541016"/>
       <use xlink:href="#DejaVuSans-20" x="193.75"/>
       <use xlink:href="#DejaVuSans-28" x="225.537109"/>
       <use xlink:href="#DejaVuSans-63" x="264.550781"/>
       <use xlink:href="#DejaVuSans-6f" x="319.53125"/>
       <use xlink:href="#DejaVuSans-73" x="380.712891"/>
       <use xlink:href="#DejaVuSans-69" x="432.8125"/>
       <use xlink:href="#DejaVuSans-6e" x="460.595703"/>
       <use xlink:href="#DejaVuSans-65" x="523.974609"/>
       <use xlink:href="#DejaVuSans-29" x="585.498047"/>
      </g>
     </g>
    </g>
    <g id="xtick_5">
     <g id="line2d_5">
      <g>
       <use xlink:href="#md145914437" x="467.021479" y="301.8675" style="stroke: #000000; stroke-width: 0.8"/>
      </g>
     </g>
     <g id="text_5">
      <!-- mnist (real, 784-d) -->
      <g transform="translate(430.971085 330.334022) rotate(-12) scale(0.08 -0.08)">
       <defs>
        <path id="DejaVuSans-2c" d="M 750 794 
L 1409 794 
L 1409 256 
L 897 -744 
L 494 -744 
L 750 256 
L 750 794 
z
" transform="scale(0.015625)"/>
        <path id="DejaVuSans-37" d="M 525 4666 
L 3525 4666 
L 3525 4397 
L 1831 0 
L 1172 0 
L 2766 4134 
L 525 4134 
L 525 4666 
z
" transform="scale(0.015625)"/>
        <path id="DejaVuSans-38" d="M 2034 2216 
Q 1584 2216 1326 1975 
Q 1069 1734 1069 1313 
Q 1069 891 1326 650 
Q 1584 409 2034 409 
Q 2484 409 2743 651 
Q 3003 894 3003 1313 
Q 3003 1734 2745 1975 
Q 2488 2216 2034 2216 
z
M 1403 2484 
Q 997 2584 770 2862 
Q 544 3141 544 3541 
Q 544 4100 942 4425 
Q 1341 4750 2034 4750 
Q 2731 4750 3128 4425 
Q 3525 4100 3525 3541 
Q 3525 3141 3298 2862 
Q 3072 2584 2669 2484 
Q 3125 2378 3379 2068 
Q 3634 1759 3634 1313 
Q 3634 634 3220 271 
Q 2806 -91 2034 -91 
Q 1263 -91 848 271 
Q 434 634 434 1313 
Q 434 1759 690 2068 
Q 947 2378 1403 2484 
z
M 1172 3481 
Q 1172 3119 1398 2916 
Q 1625 2713 2034 2713 
Q 2441 2713 2670 2916 
Q 2900 3119 2900 3481 
Q 2900 3844 2670 4047 
Q 2441 4250 2034 4250 
Q 1625 4250 1398 4047 
Q 1172 3844 1172 3481 
z
" transform="scale(0.015625)"/>
        <path id="DejaVuSans-34" d="M 2419 4116 
L 825 1625 
L 2419 1625 
L 2419 4116 
z
M 2253 4666 
L 3047 4666 
L 3047 1625 
L 3713 1625 
L 3713 1100 
L 3047 1100 
L 3047 0 
L 2419 0 
L 2419 1100 
L 313 1100 
L 313 1709 
L 2253 4666 
z
" transform="scale(0.015625)"/>
        <path id="DejaVuSans-2d" d="M 313 2009 
L 1997 2009 
L 1997 1497 
L 313 1497 
L 313 2009 
z
" transform="scale(0.015625)"/>
       </defs>
       <use xlink:href="#DejaVuSans-6d"/>
       <use xlink:href="#DejaVuSans-6e" x="97.412109"/>
       <use xlink:href="#DejaVuSans-69" x="160.791016"/>
       <use xlink:href="#DejaVuSans-73" x="188.574219"/>
       <use xlink:href="#DejaVuSans-74" x="240.673828"/>
       <use xlink:href="#DejaVuSans-20" x="279.882812"/>
       <use xlink:href="#DejaVuSans-28" x="311.669922"/>
       <use xlink:href="#DejaVuSans-72" x="350.683594"/>
       <use xlink:href="#DejaVuSans-65" x="389.546875"/>
       <use xlink:href="#DejaVuSans-61" x="451.070312"/>
       <use xlink:href="#DejaVuSans-6c" x="512.349609"/>
       <use xlink:href="#DejaVuSans-2c" x="540.132812"/>
       <use xlink:href="#DejaVuSans-20" x="571.919922"/>
       <use xlink:href="#DejaVuSans-37" x="603.707031"/>
       <use xlink:href="#DejaVuSans-38" x="667.330078"/>
       <use xlink:href="#DejaVuSans-34" x="730.953125"/>
       <use xlink:href="#DejaVuSans-2d" x="794.576172"/>
       <use xlink:href="#DejaVuSans-64" x="830.660156"/>
       <use xlink:href="#DejaVuSans-29" x="894.136719"/>
      </g>
     </g>
    </g>
   </g>
   <g id="matplotlib.axis_2">
    <g id="ytick_1">
     <g id="line2d_6">
      <path d="M 43.78125 301.8675 
L 523.66125 301.8675 
" clip-path="url(#p0971578055)" style="fill: none; stroke: #b0b0b0; stroke-opacity: 0.3; stroke-width: 0.8; stroke-linecap: square"/>
     </g>
     <g id="line2d_7">
      <defs>
       <path id="m67427afd30" d="M 0 0 
L -3.5 0 
" style="stroke: #000000; stroke-width: 0.8"/>
      </defs>
      <g>
       <use xlink:href="#m67427afd30" x="43.78125" y="301.8675" style="stroke: #000000; stroke-width: 0.8"/>
      </g>
     </g>
     <g id="text_6">
      <!-- 0.0 -->
      <g transform="translate(20.878125 305.666719) scale(0.1 -0.1)">
       <defs>
        <path id="DejaVuSans-30" d="M 2034 4250 
Q 1547 4250 1301 3770 
Q 1056 3291 1056 2328 
Q 1056 1369 1301 889 
Q 1547 409 2034 409 
Q 2525 409 2770 889 
Q 3016 1369 3016 2328 
Q 3016 3291 2770 3770 
Q 2525 4250 2034 4250 
z
M 2034 4750 
Q 2819 4750 3233 4129 
Q 3647 3509 3647 2328 
Q 3647 1150 3233 529 
Q 2819 -91 2034 -91 
Q 1250 -91 836 529 
Q 422 1150 422 2328 
Q 422 3509 836 4129 
Q 1250 4750 2034 4750 
z
" transform="scale(0.015625)"/>
        <path id="DejaVuSans-2e" d="M 684 794 
L 1344 794 
L 1344 0 
L 684 0 
L 684 794 
z
" transform="scale(0.015625)"/>
       </defs>
       <use xlink:href="#DejaVuSans-30"/>
       <use xlink:href="#DejaVuSans-2e" x="63.623047"/>
       <use xlink:href="#DejaVuSans-30" x="95.410156"/>
      </g>
     </g>
    </g>
    <g id="ytick_2">
     <g id="line2d_8">
      <path d="M 43.78125 252.5875 
L 523.66125 252.5875 
" clip-path="url(#p0971578055)" style="fill: none; stroke: #b0b0b0; stroke-opacity: 0.3; stroke-width: 0.8; stroke-linecap: square"/>
     </g>
     <g id="line2d_9">
      <g>
       <use xlink:href="#m67427afd30" x="43.78125" y="252.5875" style="stroke: #000000; stroke-width: 0.8"/>
      </g>
     </g>
     <g id="text_7">
      <!-- 0.2 -->
      <g transform="translate(20.878125 256.386719) scale(0.1 -0.1)">
       <defs>
        <path id="DejaVuSans-32" d="M 1228 531 
L 3431 531 
L 3431 0 
L 469 0 
L 469 531 
Q 828 903 1448 1529 
Q 2069 2156 2228 2338 
Q 2531 2678 2651 2914 
Q 2772 3150 2772 3378 
Q 2772 3750 2511 3984 
Q 2250 4219 1831 4219 
Q 1534 4219 1204 4116 
Q 875 4013 500 3803 
L 500 4441 
Q 881 4594 1212 4672 
Q 1544 4750 1819 4750 
Q 2544 4750 2975 4387 
Q 3406 4025 3406 3419 
Q 3406 3131 3298 2873 
Q 3191 2616 2906 2266 
Q 2828 2175 2409 1742 
Q 1991 1309 1228 531 
z
" transform="scale(0.015625)"/>
       </defs>
       <use xlink:href="#DejaVuSans-30"/>
       <use xlink:href="#DejaVuSans-2e" x="63.623047"/>
       <use xlink:href="#DejaVuSans-32" x="95.410156"/>
      </g>
     </g>
    </g>
    <g id="ytick_3">
     <g id="line2d_10">
      <path d="M 43.78125 203.3075 
L 523.66125 203.3075 
" clip-path="url(#p0971578055)" style="fill: none; stroke: #b0b0b0; stroke-opacity: 0.3; stroke-width: 0.8; stroke-linecap: square"/>
     </g>
     <g id="line2d_11">
      <g>
       <use xlink:href="#m67427afd30" x="43.78125" y="203.3075" style="stroke: #000000; stroke-width: 0.8"/>
      </g>
     </g>
     <g id="text_8">
      <!-- 0.4 -->
      <g transform="translate(20.878125 207.106719) scale(0.1 -0.1)">
       <use xlink:href="#DejaVuSans-30"/>
       <use xlink:href="#DejaVuSans-2e" x="63.623047"/>
       <use xlink:href="#DejaVuSans-34" x="95.410156"/>
      </g>
     </g>
    </g>
    <g id="ytick_4">
     <g id="line2d_12">
      <path d="M 43.78125 154.0275 
L 523.66125 154.0275 
" clip-path="url(#p0971578055)" style="fill: none; stroke: #b0b0b0; stroke-opacity: 0.3; stroke-width: 0.8; stroke-linecap: square"/>
     </g>
     <g id="line2d_13">
      <g>
       <use xlink:href="#m67427afd30" x="43.78125" y="154.0275" style="stroke: #000000; stroke-width: 0.8"/>
      </g>
     </g>
     <g id="text_9">
      <!-- 0.6 -->
      <g transform="translate(20.878125 157.826719) scale(0.1 -0.1)">
       <defs>
        <path id="DejaVuSans-36" d="M 2113 2584 
Q 1688 2584 1439 2293 
Q 1191 2003 1191 1497 
Q 1191 994 1439 701 
Q 1688 409 2113 409 
Q 2538 409 2786 701 
Q 3034 994 3034 1497 
Q 3034 2003 2786 2293 
Q 2538 2584 2113 2584 
z
M 3366 4563 
L 3366 3988 
Q 3128 4100 2886 4159 
Q 2644 4219 2406 4219 
Q 1781 4219 1451 3797 
Q 1122 3375 1075 2522 
Q 1259 2794 1537 2939 
Q 1816 3084 2150 3084 
Q 2853 3084 3261 2657 
Q 3669 2231 3669 1497 
Q 3669 778 3244 343 
Q 2819 -91 2113 -91 
Q 1303 -91 875 529 
Q 447 1150 447 2328 
Q 447 3434 972 4092 
Q 1497 4750 2381 4750 
Q 2619 4750 2861 4703 
Q 3103 4656 3366 4563 
z
" transform="scale(0.015625)"/>
       </defs>
       <use xlink:href="#DejaVuSans-30"/>
       <use xlink:href="#DejaVuSans-2e" x="63.623047"/>
       <use xlink:href="#DejaVuSans-36" x="95.410156"/>
      </g>
     </g>
    </g>
    <g id="ytick_5">
     <g id="line2d_14">
      <path d="M 43.78125 104.7475 
L 523.66125 104.7475 
" clip-path="url(#p0971578055)" style="fill: none; stroke: #b0b0b0; stroke-opacity: 0.3; stroke-width: 0.8; stroke-linecap: square"/>
     </g>
     <g id="line2d_15">
      <g>
       <use xlink:href="#m67427afd30" x="43.78125" y="104.7475" style="stroke: #000000; stroke-width: 0.8"/>
      </g>
     </g>
     <g id="text_10">
      <!-- 0.8 -->
      <g transform="translate(20.878125 108.546719) scale(0.1 -0.1)">
       <use xlink:href="#DejaVuSans-30"/>
       <use xlink:href="#DejaVuSans-2e" x="63.623047"/>
       <use xlink:href="#DejaVuSans-38" x="95.410156"/>
      </g>
     </g>
    </g>
    <g id="ytick_6">
     <g id="line2d_16">
      <path d="M 43.78125 55.4675 
L 523.66125 55.4675 
" clip-path="url(#p0971578055)" style="fill: none; stroke: #b0b0b0; stroke-opacity: 0.3; stroke-width: 0.8; stroke-linecap: square"/>
     </g>
     <g id="line2d_17">
      <g>
       <use xlink:href="#m67427afd30" x="43.78125" y="55.4675" style="stroke: #000000; stroke-width: 0.8"/>
      </g>
     </g>
     <g id="text_11">
      <!-- 1.0 -->
      <g transform="translate(20.878125 59.266719) scale(0.1 -0.1)">
       <defs>
        <path id="DejaVuSans-31" d="M 794 531 
L 1825 531 
L 1825 4091 
L 703 3866 
L 703 4441 
L 1819 4666 
L 2450 4666 
L 2450 531 
L 3481 531 
L 3481 0 
L 794 0 
L 794 531 
z
" transform="scale(0.015625)"/>
       </defs>
       <use xlink:href="#DejaVuSans-31"/>
       <use xlink:href="#DejaVuSans-2e" x="63.623047"/>
       <use xlink:href="#DejaVuSans-30" x="95.410156"/>
      </g>
     </g>
    </g>
    <g id="text_12">
     <!-- recall@10 (after exact rerank) -->
     <g transform="translate(14.798438 244.207594) rotate(-90) scale(0.1 -0.1)">
      <defs>
       <path id="DejaVuSans-40" d="M 2381 1678 
Q 2381 1231 2603 976 
Q 2825 722 3213 722 
Q 3597 722 3817 978 
Q 4038 1234 4038 1678 
Q 4038 2116 3813 2373 
Q 3588 2631 3206 2631 
Q 2828 2631 2604 2375 
Q 2381 2119 2381 1678 
z
M 4084 744 
Q 3897 503 3655 389 
Q 3413 275 3091 275 
Q 2553 275 2217 664 
Q 1881 1053 1881 1678 
Q 1881 2303 2218 2693 
Q 2556 3084 3091 3084 
Q 3413 3084 3656 2967 
Q 3900 2850 4084 2613 
L 4084 3022 
L 4531 3022 
L 4531 722 
Q 4988 791 5245 1139 
Q 5503 1488 5503 2041 
Q 5503 2375 5404 2669 
Q 5306 2963 5106 3213 
Q 4781 3622 4314 3839 
Q 3847 4056 3297 4056 
Q 2913 4056 2559 3954 
Q 2206 3853 1906 3653 
Q 1416 3334 1139 2817 
Q 863 2300 863 1697 
Q 863 1200 1042 765 
Q 1222 331 1563 0 
Q 1891 -325 2322 -495 
Q 2753 -666 3244 -666 
Q 3647 -666 4036 -530 
Q 4425 -394 4750 -141 
L 5031 -488 
Q 4641 -791 4180 -952 
Q 3719 -1113 3244 -1113 
Q 2666 -1113 2153 -908 
Q 1641 -703 1241 -313 
Q 841 78 631 592 
Q 422 1106 422 1697 
Q 422 2266 634 2781 
Q 847 3297 1241 3688 
Q 1644 4084 2172 4295 
Q 2700 4506 3291 4506 
Q 3953 4506 4520 4234 
Q 5088 3963 5472 3463 
Q 5706 3156 5829 2797 
Q 5953 2438 5953 2053 
Q 5953 1231 5456 756 
Q 4959 281 4084 263 
L 4084 744 
z
" transform="scale(0.015625)"/>
       <path id="DejaVuSans-66" d="M 2375 4863 
L 2375 4384 
L 1825 4384 
Q 1516 4384 1395 4259 
Q 1275 4134 1275 3809 
L 1275 3500 
L 2222 3500 
L 2222 3053 
L 1275 3053 
L 1275 0 
L 697 0 
L 697 3053 
L 147 3053 
L 147 3500 
L 697 3500 
L 697 3744 
Q 697 4328 969 4595 
Q 1241 4863 1831 4863 
L 2375 4863 
z
" transform="scale(0.015625)"/>
       <path id="DejaVuSans-78" d="M 3513 3500 
L 2247 1797 
L 3578 0 
L 2900 0 
L 1881 1375 
L 863 0 
L 184 0 
L 1544 1831 
L 300 3500 
L 978 3500 
L 1906 2253 
L 2834 3500 
L 3513 3500 
z
" transform="scale(0.015625)"/>
       <path id="DejaVuSans-6b" d="M 581 4863 
L 1159 4863 
L 1159 1991 
L 2875 3500 
L 3609 3500 
L 1753 1863 
L 3688 0 
L 2938 0 
L 1159 1709 
L 1159 0 
L 581 0 
L 581 4863 
z
" transform="scale(0.015625)"/>
      </defs>
      <use xlink:href="#DejaVuSans-72"/>
      <use xlink:href="#DejaVuSans-65" x="38.863281"/>
      <use xlink:href="#DejaVuSans-63" x="100.386719"/>
      <use xlink:href="#DejaVuSans-61" x="155.367188"/>
      <use xlink:href="#DejaVuSans-6c" x="216.646484"/>
      <use xlink:href="#DejaVuSans-6c" x="244.429688"/>
      <use xlink:href="#DejaVuSans-40" x="272.212891"/>
      <use xlink:href="#DejaVuSans-31" x="372.212891"/>
      <use xlink:href="#DejaVuSans-30" x="435.835938"/>
      <use xlink:href="#DejaVuSans-20" x="499.458984"/>
      <use xlink:href="#DejaVuSans-28" x="531.246094"/>
      <use xlink:href="#DejaVuSans-61" x="570.259766"/>
      <use xlink:href="#DejaVuSans-66" x="631.539062"/>
      <use xlink:href="#DejaVuSans-74" x="664.994141"/>
      <use xlink:href="#DejaVuSans-65" x="704.203125"/>
      <use xlink:href="#DejaVuSans-72" x="765.726562"/>
      <use xlink:href="#DejaVuSans-20" x="806.839844"/>
      <use xlink:href="#DejaVuSans-65" x="838.626953"/>
      <use xlink:href="#DejaVuSans-78" x="898.400391"/>
      <use xlink:href="#DejaVuSans-61" x="957.580078"/>
      <use xlink:href="#DejaVuSans-63" x="1018.859375"/>
      <use xlink:href="#DejaVuSans-74" x="1073.839844"/>
      <use xlink:href="#DejaVuSans-20" x="1113.048828"/>
      <use xlink:href="#DejaVuSans-72" x="1144.835938"/>
      <use xlink:href="#DejaVuSans-65" x="1183.699219"/>
      <use xlink:href="#DejaVuSans-72" x="1245.222656"/>
      <use xlink:href="#DejaVuSans-61" x="1286.335938"/>
      <use xlink:href="#DejaVuSans-6e" x="1347.615234"/>
      <use xlink:href="#DejaVuSans-6b" x="1410.994141"/>
      <use xlink:href="#DejaVuSans-29" x="1468.904297"/>
     </g>
    </g>
   </g>
   <g id="patch_13">
    <path d="M 43.78125 301.8675 
L 43.78125 35.7555 
" style="fill: none; stroke: #000000; stroke-width: 0.8; stroke-linejoin: miter; stroke-linecap: square"/>
   </g>
   <g id="patch_14">
    <path d="M 523.66125 301.8675 
L 523.66125 35.7555 
" style="fill: none; stroke: #000000; stroke-width: 0.8; stroke-linejoin: miter; stroke-linecap: square"/>
   </g>
   <g id="patch_15">
    <path d="M 43.78125 301.8675 
L 523.66125 301.8675 
" style="fill: none; stroke: #000000; stroke-width: 0.8; stroke-linejoin: miter; stroke-linecap: square"/>
   </g>
   <g id="patch_16">
    <path d="M 43.78125 35.7555 
L 523.66125 35.7555 
" style="fill: none; stroke: #000000; stroke-width: 0.8; stroke-linejoin: miter; stroke-linecap: square"/>
   </g>
   <g id="text_13">
    <!-- 1.00 -->
    <g transform="translate(74.101249 53.97623) scale(0.08 -0.08)">
     <use xlink:href="#DejaVuSans-31"/>
     <use xlink:href="#DejaVuSans-2e" x="63.623047"/>
     <use xlink:href="#DejaVuSans-30" x="95.410156"/>
     <use xlink:href="#DejaVuSans-30" x="159.033203"/>
    </g>
   </g>
   <g id="text_14">
    <!-- 0.89 -->
    <g transform="translate(165.751364 80.95703) scale(0.08 -0.08)">
     <defs>
      <path id="DejaVuSans-39" d="M 703 97 
L 703 672 
Q 941 559 1184 500 
Q 1428 441 1663 441 
Q 2288 441 2617 861 
Q 2947 1281 2994 2138 
Q 2813 1869 2534 1725 
Q 2256 1581 1919 1581 
Q 1219 1581 811 2004 
Q 403 2428 403 3163 
Q 403 3881 828 4315 
Q 1253 4750 1959 4750 
Q 2769 4750 3195 4129 
Q 3622 3509 3622 2328 
Q 3622 1225 3098 567 
Q 2575 -91 1691 -91 
Q 1453 -91 1209 -44 
Q 966 3 703 97 
z
M 1959 2075 
Q 2384 2075 2632 2365 
Q 2881 2656 2881 3163 
Q 2881 3666 2632 3958 
Q 2384 4250 1959 4250 
Q 1534 4250 1286 3958 
Q 1038 3666 1038 3163 
Q 1038 2656 1286 2365 
Q 1534 2075 1959 2075 
z
" transform="scale(0.015625)"/>
     </defs>
     <use xlink:href="#DejaVuSans-30"/>
     <use xlink:href="#DejaVuSans-2e" x="63.623047"/>
     <use xlink:href="#DejaVuSans-38" x="95.410156"/>
     <use xlink:href="#DejaVuSans-39" x="159.033203"/>
    </g>
   </g>
   <g id="text_15">
    <!-- 1.00 -->
    <g transform="translate(257.401478 53.90231) scale(0.08 -0.08)">
     <use xlink:href="#DejaVuSans-31"/>
     <use xlink:href="#DejaVuSans-2e" x="63.623047"/>
     <use xlink:href="#DejaVuSans-30" x="95.410156"/>
     <use xlink:href="#DejaVuSans-30" x="159.033203"/>
    </g>
   </g>
   <g id="text_16">
    <!-- 1.00 -->
    <g transform="translate(349.051593 54.19799) scale(0.08 -0.08)">
     <use xlink:href="#DejaVuSans-31"/>
     <use xlink:href="#DejaVuSans-2e" x="63.623047"/>
     <use xlink:href="#DejaVuSans-30" x="95.410156"/>
     <use xlink:href="#DejaVuSans-30" x="159.033203"/>
    </g>
   </g>
   <g id="text_17">
    <!-- 0.99 -->
    <g transform="translate(440.701707 55.97207) scale(0.08 -0.08)">
     <use xlink:href="#DejaVuSans-30"/>
     <use xlink:href="#DejaVuSans-2e" x="63.623047"/>
     <use xlink:href="#DejaVuSans-39" x="95.410156"/>
     <use xlink:href="#DejaVuSans-39" x="159.033203"/>
    </g>
   </g>
   <g id="text_18">
    <!-- 0.72 -->
    <g transform="translate(108.928293 122.59863) scale(0.08 -0.08)">
     <use xlink:href="#DejaVuSans-30"/>
     <use xlink:href="#DejaVuSans-2e" x="63.623047"/>
     <use xlink:href="#DejaVuSans-37" x="95.410156"/>
     <use xlink:href="#DejaVuSans-32" x="159.033203"/>
    </g>
   </g>
   <g id="text_19">
    <!-- 0.69 -->
    <g transform="translate(200.578407 131.19799) scale(0.08 -0.08)">
     <use xlink:href="#DejaVuSans-30"/>
     <use xlink:href="#DejaVuSans-2e" x="63.623047"/>
     <use xlink:href="#DejaVuSans-36" x="95.410156"/>
     <use xlink:href="#DejaVuSans-39" x="159.033203"/>
    </g>
   </g>
   <g id="text_20">
    <!-- 0.18 -->
    <g transform="translate(292.228522 256.34455) scale(0.08 -0.08)">
     <use xlink:href="#DejaVuSans-30"/>
     <use xlink:href="#DejaVuSans-2e" x="63.623047"/>
     <use xlink:href="#DejaVuSans-31" x="95.410156"/>
     <use xlink:href="#DejaVuSans-38" x="159.033203"/>
    </g>
   </g>
   <g id="text_21">
    <!-- 0.99 -->
    <g transform="translate(383.878636 56.53879) scale(0.08 -0.08)">
     <use xlink:href="#DejaVuSans-30"/>
     <use xlink:href="#DejaVuSans-2e" x="63.623047"/>
     <use xlink:href="#DejaVuSans-39" x="95.410156"/>
     <use xlink:href="#DejaVuSans-39" x="159.033203"/>
    </g>
   </g>
   <g id="text_22">
    <!-- 0.21 -->
    <g transform="translate(475.528751 248.65687) scale(0.08 -0.08)">
     <use xlink:href="#DejaVuSans-30"/>
     <use xlink:href="#DejaVuSans-2e" x="63.623047"/>
     <use xlink:href="#DejaVuSans-32" x="95.410156"/>
     <use xlink:href="#DejaVuSans-31" x="159.033203"/>
    </g>
   </g>
   <g id="text_23">
    <!-- Same sign bits, different decoder: QJL's edge IS the norm -->
    <g transform="translate(111.629063 16.318125) scale(0.12 -0.12)">
     <defs>
      <path id="DejaVuSans-53" d="M 3425 4513 
L 3425 3897 
Q 3066 4069 2747 4153 
Q 2428 4238 2131 4238 
Q 1616 4238 1336 4038 
Q 1056 3838 1056 3469 
Q 1056 3159 1242 3001 
Q 1428 2844 1947 2747 
L 2328 2669 
Q 3034 2534 3370 2195 
Q 3706 1856 3706 1288 
Q 3706 609 3251 259 
Q 2797 -91 1919 -91 
Q 1588 -91 1214 -16 
Q 841 59 441 206 
L 441 856 
Q 825 641 1194 531 
Q 1563 422 1919 422 
Q 2459 422 2753 634 
Q 3047 847 3047 1241 
Q 3047 1584 2836 1778 
Q 2625 1972 2144 2069 
L 1759 2144 
Q 1053 2284 737 2584 
Q 422 2884 422 3419 
Q 422 4038 858 4394 
Q 1294 4750 2059 4750 
Q 2388 4750 2728 4690 
Q 3069 4631 3425 4513 
z
" transform="scale(0.015625)"/>
      <path id="DejaVuSans-67" d="M 2906 1791 
Q 2906 2416 2648 2759 
Q 2391 3103 1925 3103 
Q 1463 3103 1205 2759 
Q 947 2416 947 1791 
Q 947 1169 1205 825 
Q 1463 481 1925 481 
Q 2391 481 2648 825 
Q 2906 1169 2906 1791 
z
M 3481 434 
Q 3481 -459 3084 -895 
Q 2688 -1331 1869 -1331 
Q 1566 -1331 1297 -1286 
Q 1028 -1241 775 -1147 
L 775 -588 
Q 1028 -725 1275 -790 
Q 1522 -856 1778 -856 
Q 2344 -856 2625 -561 
Q 2906 -266 2906 331 
L 2906 616 
Q 2728 306 2450 153 
Q 2172 0 1784 0 
Q 1141 0 747 490 
Q 353 981 353 1791 
Q 353 2603 747 3093 
Q 1141 3584 1784 3584 
Q 2172 3584 2450 3431 
Q 2728 3278 2906 2969 
L 2906 3500 
L 3481 3500 
L 3481 434 
z
" transform="scale(0.015625)"/>
      <path id="DejaVuSans-3a" d="M 750 794 
L 1409 794 
L 1409 0 
L 750 0 
L 750 794 
z
M 750 3309 
L 1409 3309 
L 1409 2516 
L 750 2516 
L 750 3309 
z
" transform="scale(0.015625)"/>
      <path id="DejaVuSans-51" d="M 2522 4238 
Q 1834 4238 1429 3725 
Q 1025 3213 1025 2328 
Q 1025 1447 1429 934 
Q 1834 422 2522 422 
Q 3209 422 3611 934 
Q 4013 1447 4013 2328 
Q 4013 3213 3611 3725 
Q 3209 4238 2522 4238 
z
M 3406 84 
L 4238 -825 
L 3475 -825 
L 2784 -78 
Q 2681 -84 2626 -87 
Q 2572 -91 2522 -91 
Q 1538 -91 948 567 
Q 359 1225 359 2328 
Q 359 3434 948 4092 
Q 1538 4750 2522 4750 
Q 3503 4750 4090 4092 
Q 4678 3434 4678 2328 
Q 4678 1516 4351 937 
Q 4025 359 3406 84 
z
" transform="scale(0.015625)"/>
      <path id="DejaVuSans-4a" d="M 628 4666 
L 1259 4666 
L 1259 325 
Q 1259 -519 939 -900 
Q 619 -1281 -91 -1281 
L -331 -1281 
L -331 -750 
L -134 -750 
Q 284 -750 456 -515 
Q 628 -281 628 325 
L 628 4666 
z
" transform="scale(0.015625)"/>
      <path id="DejaVuSans-4c" d="M 628 4666 
L 1259 4666 
L 1259 531 
L 3531 531 
L 3531 0 
L 628 0 
L 628 4666 
z
" transform="scale(0.015625)"/>
      <path id="DejaVuSans-27" d="M 1147 4666 
L 1147 2931 
L 616 2931 
L 616 4666 
L 1147 4666 
z
" transform="scale(0.015625)"/>
      <path id="DejaVuSans-49" d="M 628 4666 
L 1259 4666 
L 1259 0 
L 628 0 
L 628 4666 
z
" transform="scale(0.015625)"/>
      <path id="DejaVuSans-68" d="M 3513 2113 
L 3513 0 
L 2938 0 
L 2938 2094 
Q 2938 2591 2744 2837 
Q 2550 3084 2163 3084 
Q 1697 3084 1428 2787 
Q 1159 2491 1159 1978 
L 1159 0 
L 581 0 
L 581 4863 
L 1159 4863 
L 1159 2956 
Q 1366 3272 1645 3428 
Q 1925 3584 2291 3584 
Q 2894 3584 3203 3211 
Q 3513 2838 3513 2113 
z
" transform="scale(0.015625)"/>
     </defs>
     <use xlink:href="#DejaVuSans-53"/>
     <use xlink:href="#DejaVuSans-61" x="63.476562"/>
     <use xlink:href="#DejaVuSans-6d" x="124.755859"/>
     <use xlink:href="#DejaVuSans-65" x="222.167969"/>
     <use xlink:href="#DejaVuSans-20" x="283.691406"/>
     <use xlink:href="#DejaVuSans-73" x="315.478516"/>
     <use xlink:href="#DejaVuSans-69" x="367.578125"/>
     <use xlink:href="#DejaVuSans-67" x="395.361328"/>
     <use xlink:href="#DejaVuSans-6e" x="458.837891"/>
     <use xlink:href="#DejaVuSans-20" x="522.216797"/>
     <use xlink:href="#DejaVuSans-62" x="554.003906"/>
     <use xlink:href="#DejaVuSans-69" x="617.480469"/>
     <use xlink:href="#DejaVuSans-74" x="645.263672"/>
     <use xlink:href="#DejaVuSans-73" x="684.472656"/>
     <use xlink:href="#DejaVuSans-2c" x="736.572266"/>
     <use xlink:href="#DejaVuSans-20" x="768.359375"/>
     <use xlink:href="#DejaVuSans-64" x="800.146484"/>
     <use xlink:href="#DejaVuSans-69" x="863.623047"/>
     <use xlink:href="#DejaVuSans-66" x="891.40625"/>
     <use xlink:href="#DejaVuSans-66" x="926.611328"/>
     <use xlink:href="#DejaVuSans-65" x="961.816406"/>
     <use xlink:href="#DejaVuSans-72" x="1023.339844"/>
     <use xlink:href="#DejaVuSans-65" x="1062.203125"/>
     <use xlink:href="#DejaVuSans-6e" x="1123.726562"/>
     <use xlink:href="#DejaVuSans-74" x="1187.105469"/>
     <use xlink:href="#DejaVuSans-20" x="1226.314453"/>
     <use xlink:href="#DejaVuSans-64" x="1258.101562"/>
     <use xlink:href="#DejaVuSans-65" x="1321.578125"/>
     <use xlink:href="#DejaVuSans-63" x="1383.101562"/>
     <use xlink:href="#DejaVuSans-6f" x="1438.082031"/>
     <use xlink:href="#DejaVuSans-64" x="1499.263672"/>
     <use xlink:href="#DejaVuSans-65" x="1562.740234"/>
     <use xlink:href="#DejaVuSans-72" x="1624.263672"/>
     <use xlink:href="#DejaVuSans-3a" x="1663.626953"/>
     <use xlink:href="#DejaVuSans-20" x="1697.318359"/>
     <use xlink:href="#DejaVuSans-51" x="1729.105469"/>
     <use xlink:href="#DejaVuSans-4a" x="1807.816406"/>
     <use xlink:href="#DejaVuSans-4c" x="1837.308594"/>
     <use xlink:href="#DejaVuSans-27" x="1893.021484"/>
     <use xlink:href="#DejaVuSans-73" x="1920.511719"/>
     <use xlink:href="#DejaVuSans-20" x="1972.611328"/>
     <use xlink:href="#DejaVuSans-65" x="2004.398438"/>
     <use xlink:href="#DejaVuSans-64" x="2065.921875"/>
     <use xlink:href="#DejaVuSans-67" x="2129.398438"/>
     <use xlink:href="#DejaVuSans-65" x="2192.875"/>
     <use xlink:href="#DejaVuSans-20" x="2254.398438"/>
     <use xlink:href="#DejaVuSans-49" x="2286.185547"/>
     <use xlink:href="#DejaVuSans-53" x="2315.677734"/>
     <use xlink:href="#DejaVuSans-20" x="2379.154297"/>
     <use xlink:href="#DejaVuSans-74" x="2410.941406"/>
     <use xlink:href="#DejaVuSans-68" x="2450.150391"/>
     <use xlink:href="#DejaVuSans-65" x="2513.529297"/>
     <use xlink:href="#DejaVuSans-20" x="2575.052734"/>
     <use xlink:href="#DejaVuSans-6e" x="2606.839844"/>
     <use xlink:href="#DejaVuSans-6f" x="2670.21875"/>
     <use xlink:href="#DejaVuSans-72" x="2731.400391"/>
     <use xlink:href="#DejaVuSans-6d" x="2770.763672"/>
    </g>
    <!-- (they converge only on 'unit', where every norm = 1) -->
    <g transform="translate(123.704062 29.7555) scale(0.12 -0.12)">
     <defs>
      <path id="DejaVuSans-79" d="M 2059 -325 
Q 1816 -950 1584 -1140 
Q 1353 -1331 966 -1331 
L 506 -1331 
L 506 -850 
L 844 -850 
Q 1081 -850 1212 -737 
Q 1344 -625 1503 -206 
L 1606 56 
L 191 3500 
L 800 3500 
L 1894 763 
L 2988 3500 
L 3597 3500 
L 2059 -325 
z
" transform="scale(0.015625)"/>
      <path id="DejaVuSans-76" d="M 191 3500 
L 800 3500 
L 1894 563 
L 2988 3500 
L 3597 3500 
L 2284 0 
L 1503 0 
L 191 3500 
z
" transform="scale(0.015625)"/>
      <path id="DejaVuSans-77" d="M 269 3500 
L 844 3500 
L 1563 769 
L 2278 3500 
L 2956 3500 
L 3675 769 
L 4391 3500 
L 4966 3500 
L 4050 0 
L 3372 0 
L 2619 2869 
L 1863 0 
L 1184 0 
L 269 3500 
z
" transform="scale(0.015625)"/>
      <path id="DejaVuSans-3d" d="M 678 2906 
L 4684 2906 
L 4684 2381 
L 678 2381 
L 678 2906 
z
M 678 1631 
L 4684 1631 
L 4684 1100 
L 678 1100 
L 678 1631 
z
" transform="scale(0.015625)"/>
     </defs>
     <use xlink:href="#DejaVuSans-28"/>
     <use xlink:href="#DejaVuSans-74" x="39.013672"/>
     <use xlink:href="#DejaVuSans-68" x="78.222656"/>
     <use xlink:href="#DejaVuSans-65" x="141.601562"/>
     <use xlink:href="#DejaVuSans-79" x="203.125"/>
     <use xlink:href="#DejaVuSans-20" x="262.304688"/>
     <use xlink:href="#DejaVuSans-63" x="294.091797"/>
     <use xlink:href="#DejaVuSans-6f" x="349.072266"/>
     <use xlink:href="#DejaVuSans-6e" x="410.253906"/>
     <use xlink:href="#DejaVuSans-76" x="473.632812"/>
     <use xlink:href="#DejaVuSans-65" x="532.8125"/>
     <use xlink:href="#DejaVuSans-72" x="594.335938"/>
     <use xlink:href="#DejaVuSans-67" x="633.699219"/>
     <use xlink:href="#DejaVuSans-65" x="697.175781"/>
     <use xlink:href="#DejaVuSans-20" x="758.699219"/>
     <use xlink:href="#DejaVuSans-6f" x="790.486328"/>
     <use xlink:href="#DejaVuSans-6e" x="851.667969"/>
     <use xlink:href="#DejaVuSans-6c" x="915.046875"/>
     <use xlink:href="#DejaVuSans-79" x="942.830078"/>
     <use xlink:href="#DejaVuSans-20" x="1002.009766"/>
     <use xlink:href="#DejaVuSans-6f" x="1033.796875"/>
     <use xlink:href="#DejaVuSans-6e" x="1094.978516"/>
     <use xlink:href="#DejaVuSans-20" x="1158.357422"/>
     <use xlink:href="#DejaVuSans-27" x="1190.144531"/>
     <use xlink:href="#DejaVuSans-75" x="1217.634766"/>
     <use xlink:href="#DejaVuSans-6e" x="1281.013672"/>
     <use xlink:href="#DejaVuSans-69" x="1344.392578"/>
     <use xlink:href="#DejaVuSans-74" x="1372.175781"/>
     <use xlink:href="#DejaVuSans-27" x="1411.384766"/>
     <use xlink:href="#DejaVuSans-2c" x="1438.875"/>
     <use xlink:href="#DejaVuSans-20" x="1470.662109"/>
     <use xlink:href="#DejaVuSans-77" x="1502.449219"/>
     <use xlink:href="#DejaVuSans-68" x="1584.236328"/>
     <use xlink:href="#DejaVuSans-65" x="1647.615234"/>
     <use xlink:href="#DejaVuSans-72" x="1709.138672"/>
     <use xlink:href="#DejaVuSans-65" x="1748.001953"/>
     <use xlink:href="#DejaVuSans-20" x="1809.525391"/>
     <use xlink:href="#DejaVuSans-65" x="1841.3125"/>
     <use xlink:href="#DejaVuSans-76" x="1902.835938"/>
     <use xlink:href="#DejaVuSans-65" x="1962.015625"/>
     <use xlink:href="#DejaVuSans-72" x="2023.539062"/>
     <use xlink:href="#DejaVuSans-79" x="2064.652344"/>
     <use xlink:href="#DejaVuSans-20" x="2123.832031"/>
     <use xlink:href="#DejaVuSans-6e" x="2155.619141"/>
     <use xlink:href="#DejaVuSans-6f" x="2218.998047"/>
     <use xlink:href="#DejaVuSans-72" x="2280.179688"/>
     <use xlink:href="#DejaVuSans-6d" x="2319.542969"/>
     <use xlink:href="#DejaVuSans-20" x="2416.955078"/>
     <use xlink:href="#DejaVuSans-3d" x="2448.742188"/>
     <use xlink:href="#DejaVuSans-20" x="2532.53125"/>
     <use xlink:href="#DejaVuSans-31" x="2564.318359"/>
     <use xlink:href="#DejaVuSans-29" x="2627.941406"/>
    </g>
   </g>
   <g id="legend_1">
    <g id="patch_17">
     <path d="M 322.325 297.8675 
L 518.06125 297.8675 
Q 519.66125 297.8675 519.66125 296.2675 
L 519.66125 273.0675 
Q 519.66125 271.4675 518.06125 271.4675 
L 322.325 271.4675 
Q 320.725 271.4675 320.725 273.0675 
L 320.725 296.2675 
Q 320.725 297.8675 322.325 297.8675 
z
" style="fill: #ffffff; opacity: 0.8; stroke: #cccccc; stroke-linejoin: miter"/>
    </g>
    <g id="patch_18">
     <path d="M 323.925 280.78125 
L 339.925 280.78125 
L 339.925 275.18125 
L 323.925 275.18125 
z
" style="fill: #1f77b4"/>
    </g>
    <g id="text_24">
     <!-- QJL m=1024 (unbiased IP, uses ‖x‖) -->
     <g transform="translate(346.325 280.78125) scale(0.08 -0.08)">
      <defs>
       <path id="DejaVuSans-50" d="M 1259 4147 
L 1259 2394 
L 2053 2394 
Q 2494 2394 2734 2622 
Q 2975 2850 2975 3272 
Q 2975 3691 2734 3919 
Q 2494 4147 2053 4147 
L 1259 4147 
z
M 628 4666 
L 2053 4666 
Q 2838 4666 3239 4311 
Q 3641 3956 3641 3272 
Q 3641 2581 3239 2228 
Q 2838 1875 2053 1875 
L 1259 1875 
L 1259 0 
L 628 0 
L 628 4666 
z
" transform="scale(0.015625)"/>
       <path id="DejaVuSans-2016" d="M 1344 4891 
L 1344 -1509 
L 813 -1509 
L 813 4891 
L 1344 4891 
z
M 2375 4891 
L 2375 -1509 
L 1844 -1509 
L 1844 4891 
L 2375 4891 
z
" transform="scale(0.015625)"/>
      </defs>
      <use xlink:href="#DejaVuSans-51"/>
      <use xlink:href="#DejaVuSans-4a" x="78.710938"/>
      <use xlink:href="#DejaVuSans-4c" x="108.203125"/>
      <use xlink:href="#DejaVuSans-20" x="163.916016"/>
      <use xlink:href="#DejaVuSans-6d" x="195.703125"/>
      <use xlink:href="#DejaVuSans-3d" x="293.115234"/>
      <use xlink:href="#DejaVuSans-31" x="376.904297"/>
      <use xlink:href="#DejaVuSans-30" x="440.527344"/>
      <use xlink:href="#DejaVuSans-32" x="504.150391"/>
      <use xlink:href="#DejaVuSans-34" x="567.773438"/>
      <use xlink:href="#DejaVuSans-20" x="631.396484"/>
      <use xlink:href="#DejaVuSans-28" x="663.183594"/>
      <use xlink:href="#DejaVuSans-75" x="702.197266"/>
      <use xlink:href="#DejaVuSans-6e" x="765.576172"/>
      <use xlink:href="#DejaVuSans-62" x="828.955078"/>
      <use xlink:href="#DejaVuSans-69" x="892.431641"/>
      <use xlink:href="#DejaVuSans-61" x="920.214844"/>
      <use xlink:href="#DejaVuSans-73" x="981.494141"/>
      <use xlink:href="#DejaVuSans-65" x="1033.59375"/>
      <use xlink:href="#DejaVuSans-64" x="1095.117188"/>
      <use xlink:href="#DejaVuSans-20" x="1158.59375"/>
      <use xlink:href="#DejaVuSans-49" x="1190.380859"/>
      <use xlink:href="#DejaVuSans-50" x="1219.873047"/>
      <use xlink:href="#DejaVuSans-2c" x="1280.175781"/>
      <use xlink:href="#DejaVuSans-20" x="1311.962891"/>
      <use xlink:href="#DejaVuSans-75" x="1343.75"/>
      <use xlink:href="#DejaVuSans-73" x="1407.128906"/>
      <use xlink:href="#DejaVuSans-65" x="1459.228516"/>
      <use xlink:href="#DejaVuSans-73" x="1520.751953"/>
      <use xlink:href="#DejaVuSans-20" x="1572.851562"/>
      <use xlink:href="#DejaVuSans-2016" x="1604.638672"/>
      <use xlink:href="#DejaVuSans-78" x="1654.638672"/>
      <use xlink:href="#DejaVuSans-2016" x="1713.818359"/>
      <use xlink:href="#DejaVuSans-29" x="1763.818359"/>
     </g>
    </g>
    <g id="patch_19">
     <path d="M 323.925 292.78125 
L 339.925 292.78125 
L 339.925 287.18125 
L 323.925 287.18125 
z
" style="fill: #ff7f0e"/>
    </g>
    <g id="text_25">
     <!-- SimHash m=1024 (Hamming, ignores ‖x‖) -->
     <g transform="translate(346.325 292.78125) scale(0.08 -0.08)">
      <defs>
       <path id="DejaVuSans-48" d="M 628 4666 
L 1259 4666 
L 1259 2753 
L 3553 2753 
L 3553 4666 
L 4184 4666 
L 4184 0 
L 3553 0 
L 3553 2222 
L 1259 2222 
L 1259 0 
L 628 0 
L 628 4666 
z
" transform="scale(0.015625)"/>
      </defs>
      <use xlink:href="#DejaVuSans-53"/>
      <use xlink:href="#DejaVuSans-69" x="63.476562"/>
      <use xlink:href="#DejaVuSans-6d" x="91.259766"/>
      <use xlink:href="#DejaVuSans-48" x="188.671875"/>
      <use xlink:href="#DejaVuSans-61" x="263.867188"/>
      <use xlink:href="#DejaVuSans-73" x="325.146484"/>
      <use xlink:href="#DejaVuSans-68" x="377.246094"/>
      <use xlink:href="#DejaVuSans-20" x="440.625"/>
      <use xlink:href="#DejaVuSans-6d" x="472.412109"/>
      <use xlink:href="#DejaVuSans-3d" x="569.824219"/>
      <use xlink:href="#DejaVuSans-31" x="653.613281"/>
      <use xlink:href="#DejaVuSans-30" x="717.236328"/>
      <use xlink:href="#DejaVuSans-32" x="780.859375"/>
      <use xlink:href="#DejaVuSans-34" x="844.482422"/>
      <use xlink:href="#DejaVuSans-20" x="908.105469"/>
      <use xlink:href="#DejaVuSans-28" x="939.892578"/>
      <use xlink:href="#DejaVuSans-48" x="978.90625"/>
      <use xlink:href="#DejaVuSans-61" x="1054.101562"/>
      <use xlink:href="#DejaVuSans-6d" x="1115.380859"/>
      <use xlink:href="#DejaVuSans-6d" x="1212.792969"/>
      <use xlink:href="#DejaVuSans-69" x="1310.205078"/>
      <use xlink:href="#DejaVuSans-6e" x="1337.988281"/>
      <use xlink:href="#DejaVuSans-67" x="1401.367188"/>
      <use xlink:href="#DejaVuSans-2c" x="1464.84375"/>
      <use xlink:href="#DejaVuSans-20" x="1496.630859"/>
      <use xlink:href="#DejaVuSans-69" x="1528.417969"/>
      <use xlink:href="#DejaVuSans-67" x="1556.201172"/>
      <use xlink:href="#DejaVuSans-6e" x="1619.677734"/>
      <use xlink:href="#DejaVuSans-6f" x="1683.056641"/>
      <use xlink:href="#DejaVuSans-72" x="1744.238281"/>
      <use xlink:href="#DejaVuSans-65" x="1783.101562"/>
      <use xlink:href="#DejaVuSans-73" x="1844.625"/>
      <use xlink:href="#DejaVuSans-20" x="1896.724609"/>
      <use xlink:href="#DejaVuSans-2016" x="1928.511719"/>
      <use xlink:href="#DejaVuSans-78" x="1978.511719"/>
      <use xlink:href="#DejaVuSans-2016" x="2037.691406"/>
      <use xlink:href="#DejaVuSans-29" x="2087.691406"/>
     </g>
    </g>
   </g>
  </g>
 </g>
 <defs>
  <clipPath id="p0971578055">
   <rect x="43.78125" y="35.7555" width="479.88" height="266.112"/>
  </clipPath>
 </defs>
</svg>
